<svg width="96" height="29" viewBox="0 0 96 29" fill="none" xmlns="http://www.w3.org/2000/svg">
<g clip-path="url(#clip0_461_4019)">
<path fill-rule="evenodd" clip-rule="evenodd" d="M27.5659 1.33398H33.43V12.662L44.2441 1.33398H51.1199L40.4514 12.4969L51.8216 27.8758H44.869L36.5189 16.5766L33.43 19.8393V27.8758H27.5659V1.33398Z" fill="#232623"/>
<path fill-rule="evenodd" clip-rule="evenodd" d="M13.8605 22.9466C9.29107 22.9466 5.85494 19.155 5.85494 14.6049V14.3042C5.85494 9.75394 9.29107 5.96235 13.8605 5.96235C16.905 5.96235 18.7704 7.17432 20.8634 9.0685L24.0453 4.74891C21.4411 2.1639 18.6746 0.578125 13.8768 0.578125C6.0328 0.578125 0 6.60696 0 14.2283V14.6808C0 22.302 6.0328 28.3309 13.8768 28.3309C18.6746 28.3309 21.4411 26.7451 24.0453 24.1601L20.8634 19.8404C18.7704 21.7347 16.905 22.9466 13.8605 22.9466Z" fill="#232623"/>
<path fill-rule="evenodd" clip-rule="evenodd" d="M84.4924 1.31836L78.4944 19.8286L72.6448 1.33442H68.5869L62.6977 19.8058L56.7136 1.32981L50.8203 1.33442L59.47 27.8671H65.3914L70.5847 11.3246L75.8696 27.8671H81.7774L90.4179 1.31836H84.4924Z" fill="#232623"/>
<mask id="mask0_461_4019" style="mask-type:alpha" maskUnits="userSpaceOnUse" x="88" y="21" width="8" height="8">
<path d="M95.6238 21.3926V28.3308H88.6572V21.3926H95.6238Z" fill="white"/>
</mask>
<g mask="url(#mask0_461_4019)">
<path fill-rule="evenodd" clip-rule="evenodd" d="M92.1406 28.3308C94.0649 28.3308 95.6239 26.7774 95.6239 24.8622C95.6239 22.9459 94.0649 21.3926 92.1406 21.3926C90.2162 21.3926 88.6572 22.9459 88.6572 24.8622C88.6572 26.7775 90.2162 28.3308 92.1406 28.3308Z" fill="#C8DD2D"/>
</g>
</g>
<defs>
<clipPath id="clip0_461_4019">
<rect width="96" height="28.0396" fill="white" transform="translate(0 0.480469)"/>
</clipPath>
</defs>
</svg>
